HIERARCHY
ROOT reference
{
  OFFSET 0 0 0
  CHANNELS 6 Xposition Yposition Zposition Zrotation Xrotation Yrotation
  JOINT Hips
  {
    OFFSET 19.8941 91.4584 12.6699
    CHANNELS 3 Zrotation Xrotation Yrotation
    JOINT RightUpLeg
    {
      OFFSET -9.21136 -1.54315 -0.00338228
      CHANNELS 3 Zrotation Xrotation Yrotation
      JOINT RightLeg
      {
        OFFSET 0.100199 -41.8913 0.117885
        CHANNELS 3 Zrotation Xrotation Yrotation
        JOINT RightFoot
        {
          OFFSET -0.0312538 -39.9042 0.200326
          CHANNELS 3 Zrotation Xrotation Yrotation
          End Site
          {
            OFFSET 0 -7.69 17.5
          }
        }
      }
    }
    JOINT LeftUpLeg
    {
      OFFSET 9.2904 -1.6473 0.00344049
      CHANNELS 3 Zrotation Xrotation Yrotation
      JOINT LeftLeg
      {
        OFFSET 0.15381 -41.8817 -0.0541105
        CHANNELS 3 Zrotation Xrotation Yrotation
        JOINT LeftFoot
        {
          OFFSET 0.872932 -43.9846 -0.139608
          CHANNELS 3 Zrotation Xrotation Yrotation
          End Site
          {
            OFFSET 0 -7.69 17.5
          }
        }
      }
    }
    JOINT Spine
    {
      OFFSET 0.0768477 14.3139 0.027738
      CHANNELS 3 Zrotation Xrotation Yrotation
      JOINT Spine1
      {
        OFFSET -0.0133682 9.71866 0.00713354
        CHANNELS 3 Zrotation Xrotation Yrotation
        JOINT Spine2
        {
          OFFSET -0.0175262 10.1212 -0.00524987
          CHANNELS 3 Zrotation Xrotation Yrotation
          JOINT Spine3
          {
            OFFSET -0.00348171 9.71796 0.0104149
            CHANNELS 3 Zrotation Xrotation Yrotation
            JOINT Neck
            {
              OFFSET -0.0845439 10.3822 0.044921
              CHANNELS 3 Zrotation Xrotation Yrotation
              JOINT Head
              {
                OFFSET -0.0310878 9.44025 0.0694291
                CHANNELS 3 Zrotation Xrotation Yrotation
                End Site
                {
                  OFFSET 0 15.95 0
                }
              }
            }
            JOINT RightShoulder
            {
              OFFSET -3.20882 6.90619 -0.0326675
              CHANNELS 3 Zrotation Xrotation Yrotation
              JOINT RightArm
              {
                OFFSET -12.8514 -0.0142271 -0.0483735
                CHANNELS 3 Zrotation Xrotation Yrotation
                JOINT RightForeArm
                {
                  OFFSET -26.4475 -0.0994884 -0.035967
                  CHANNELS 3 Zrotation Xrotation Yrotation
                  JOINT RightHand
                  {
                    OFFSET -25.9226 -0.102631 -0.136889
                    CHANNELS 3 Zrotation Xrotation Yrotation
                    JOINT RightHandThumb1
                    {
                      OFFSET -2.48905 0.190105 3.12053
                      CHANNELS 3 Zrotation Xrotation Yrotation
                      JOINT RightHandThumb2
                      {
                        OFFSET -3.68274 0 0
                        CHANNELS 3 Zrotation Xrotation Yrotation
                        JOINT RightHandThumb3
                        {
                          OFFSET -2.55832 0 0
                          CHANNELS 3 Zrotation Xrotation Yrotation
                          End Site
                          {
                            OFFSET -2.194 0 0
                          }
                        }
                      }
                    }
                    JOINT RightInHandIndex
                    {
                      OFFSET -3.22368 0.508421 1.97842
                      CHANNELS 3 Zrotation Xrotation Yrotation
                      JOINT RightHandIndex1
                      {
                        OFFSET -5.21684 -0.091368 0.999158
                        CHANNELS 3 Zrotation Xrotation Yrotation
                        JOINT RightHandIndex2
                        {
                          OFFSET -3.61937 0 0
                          CHANNELS 3 Zrotation Xrotation Yrotation
                          JOINT RightHandIndex3
                          {
                            OFFSET -2.0521 0 0
                            CHANNELS 3 Zrotation Xrotation Yrotation
                            End Site
                            {
                              OFFSET -1.805 0 0
                            }
                          }
                        }
                      }
                    }
                    JOINT RightInHandMiddle
                    {
                      OFFSET -3.38211 0.517263 0.756737
                      CHANNELS 3 Zrotation Xrotation Yrotation
                      JOINT RightHandMiddle1
                      {
                        OFFSET -5.17411 -0.084 0.313895
                        CHANNELS 3 Zrotation Xrotation Yrotation
                        JOINT RightHandMiddle2
                        {
                          OFFSET -3.94947 0 0
                          CHANNELS 3 Zrotation Xrotation Yrotation
                          JOINT RightHandMiddle3
                          {
                            OFFSET -2.47579 0 0
                            CHANNELS 3 Zrotation Xrotation Yrotation
                            End Site
                            {
                              OFFSET -1.975 0 0
                            }
                          }
                        }
                      }
                    }
                    JOINT RightInHandRing
                    {
                      OFFSET -3.36516 0.537895 -0.128947
                      CHANNELS 3 Zrotation Xrotation Yrotation
                      JOINT RightHandRing1
                      {
                        OFFSET -4.63474 -0.022105 -0.478947
                        CHANNELS 3 Zrotation Xrotation Yrotation
                        JOINT RightHandRing2
                        {
                          OFFSET -3.44238 0 0
                          CHANNELS 3 Zrotation Xrotation Yrotation
                          JOINT RightHandRing3
                          {
                            OFFSET -2.3881 0 0
                            CHANNELS 3 Zrotation Xrotation Yrotation
                            End Site
                            {
                              OFFSET -1.857 0 0
                            }
                          }
                        }
                      }
                    }
                    JOINT RightInHandPinky
                    {
                      OFFSET -3.16105 0.469368 -1.20179
                      CHANNELS 3 Zrotation Xrotation Yrotation
                      JOINT RightHandPinky1
                      {
                        OFFSET -4.14105 -0.022105 -1.09053
                        CHANNELS 3 Zrotation Xrotation Yrotation
                        JOINT RightHandPinky2
                        {
                          OFFSET -2.75653 0 0
                          CHANNELS 3 Zrotation Xrotation Yrotation
                          JOINT RightHandPinky3
                          {
                            OFFSET -1.74189 0 0
                            CHANNELS 3 Zrotation Xrotation Yrotation
                            End Site
                            {
                              OFFSET -1.645 0 0
                            }
                          }
                        }
                      }
                    }
                  }
                }
              }
            }
            JOINT LeftShoulder
            {
              OFFSET 3.19355 6.9059 0.0487761
              CHANNELS 3 Zrotation Xrotation Yrotation
              JOINT LeftArm
              {
                OFFSET 12.7349 -0.00433124 -0.0458964
                CHANNELS 3 Zrotation Xrotation Yrotation
                JOINT LeftForeArm
                {
                  OFFSET 26.4064 -0.194468 0.00909971
                  CHANNELS 3 Zrotation Xrotation Yrotation
                  JOINT LeftHand
                  {
                    OFFSET 25.9027 0.0515579 -0.250056
                    CHANNELS 3 Zrotation Xrotation Yrotation
                    JOINT LeftHandThumb1
                    {
                      OFFSET 2.48905 0.190105 3.12053
                      CHANNELS 3 Zrotation Xrotation Yrotation
                      JOINT LeftHandThumb2
                      {
                        OFFSET 3.68274 0 0
                        CHANNELS 3 Zrotation Xrotation Yrotation
                        JOINT LeftHandThumb3
                        {
                          OFFSET 2.55832 0 0
                          CHANNELS 3 Zrotation Xrotation Yrotation
                          End Site
                          {
                            OFFSET 2.194 0 0
                          }
                        }
                      }
                    }
                    JOINT LeftInHandIndex
                    {
                      OFFSET 3.22368 0.508421 1.97842
                      CHANNELS 3 Zrotation Xrotation Yrotation
                      JOINT LeftHandIndex1
                      {
                        OFFSET 5.21684 -0.091368 0.999158
                        CHANNELS 3 Zrotation Xrotation Yrotation
                        JOINT LeftHandIndex2
                        {
                          OFFSET 3.61937 0 0
                          CHANNELS 3 Zrotation Xrotation Yrotation
                          JOINT LeftHandIndex3
                          {
                            OFFSET 2.0521 0 0
                            CHANNELS 3 Zrotation Xrotation Yrotation
                            End Site
                            {
                              OFFSET 1.805 0 0
                            }
                          }
                        }
                      }
                    }
                    JOINT LeftInHandMiddle
                    {
                      OFFSET 3.38211 0.517263 0.756737
                      CHANNELS 3 Zrotation Xrotation Yrotation
                      JOINT LeftHandMiddle1
                      {
                        OFFSET 5.17411 -0.084 0.313895
                        CHANNELS 3 Zrotation Xrotation Yrotation
                        JOINT LeftHandMiddle2
                        {
                          OFFSET 3.94947 0 0
                          CHANNELS 3 Zrotation Xrotation Yrotation
                          JOINT LeftHandMiddle3
                          {
                            OFFSET 2.47579 0 0
                            CHANNELS 3 Zrotation Xrotation Yrotation
                            End Site
                            {
                              OFFSET 1.975 0 0
                            }
                          }
                        }
                      }
                    }
                    JOINT LeftInHandRing
                    {
                      OFFSET 3.36516 0.537895 -0.128947
                      CHANNELS 3 Zrotation Xrotation Yrotation
                      JOINT LeftHandRing1
                      {
                        OFFSET 4.63474 -0.022105 -0.478947
                        CHANNELS 3 Zrotation Xrotation Yrotation
                        JOINT LeftHandRing2
                        {
                          OFFSET 3.44238 0 0
                          CHANNELS 3 Zrotation Xrotation Yrotation
                          JOINT LeftHandRing3
                          {
                            OFFSET 2.3881 0 0
                            CHANNELS 3 Zrotation Xrotation Yrotation
                            End Site
                            {
                              OFFSET 1.857 0 0
                            }
                          }
                        }
                      }
                    }
                    JOINT LeftInHandPinky
                    {
                      OFFSET 3.16105 0.469368 -1.20179
                      CHANNELS 3 Zrotation Xrotation Yrotation
                      JOINT LeftHandPinky1
                      {
                        OFFSET 4.14105 -0.022105 -1.09053
                        CHANNELS 3 Zrotation Xrotation Yrotation
                        JOINT LeftHandPinky2
                        {
                          OFFSET 2.75653 0 0
                          CHANNELS 3 Zrotation Xrotation Yrotation
                          JOINT LeftHandPinky3
                          {
                            OFFSET 1.74189 0 0
                            CHANNELS 3 Zrotation Xrotation Yrotation
                            End Site
                            {
                              OFFSET 1.645 0 0
                            }
                          }
                        }
                      }
                    }
                  }
                }
              }
            }
          }
        }
      }
    }
  }
}
MOTION
Frames: 2
Frame Time: 0.00416667
7.500000000000000000e+02 0.000000000000000000e+00 0.000000000000000000e+00 0.000000000000000000e+00 0.000000000000000000e+00 0.000000000000000000e+00 2.950885220472151715e+01 -1.911620341718461802e+01 -1.170861899379997908e+02 -9.405049025673223539e+00 -5.269968311779108916e+01 -1.089588313184585111e+01 -4.373650299146254916e+00 1.011837213639728006e+01 2.546151151868903995e+01 9.331090990346869063e+00 4.145363992102681472e+00 4.327870171286168244e+01 1.764333467859794879e+01 -3.860097752185487252e+01 2.003003632911740084e+01 -4.303795962569690881e-01 3.744775300278112784e+00 -8.673665686297072241e+00 -1.344898121228858123e+01 3.325136560970133104e+00 -1.365518623186957825e+01 3.710698290401114097e+00 1.891432800024885807e+01 -1.075137539907630213e+01 5.975781756204244788e-01 4.693791336520066082e+00 -2.700610883720873101e+00 1.042381419601030368e+00 7.400584125683209002e+00 -4.606507526421718346e+00 -1.579228996150857434e+00 -6.595921688706168906e-01 9.153884235396465563e-01 -1.612113905840669492e+00 -6.458304728139327988e-01 9.499016554116793687e-01 -2.963122023876907818e+01 -1.159332265525773309e+01 1.701778095445335026e+01 -6.494427316125152672e+00 -9.086512614655799069e+00 8.181076751592737395e+00 6.220611418492399025e+01 9.775094096294489887e-02 3.836688510135484620e+01 7.205935672101433909e+01 -7.476773206374576830e+01 1.572535000311134183e+02 7.059231208152363379e-01 -2.358238896117265071e+01 1.948273874000195605e+01 2.818400000000000105e+01 1.072940000000000005e+01 1.915919999999999845e+01 2.628378045556418189e-15 -2.895208112219437979e-15 -1.000000000000000000e+01 1.072595671684756140e-15 -3.344130063366360728e-15 -1.000000000000000000e+01 7.510105422825847583e-16 -1.331545290708923630e-15 4.517566371761091764e-16 1.998179999999999978e+01 8.718970000000000331e-01 2.396399999999999864e+00 2.400000000000000000e+01 4.400364993394985441e-15 1.579364673547670427e-14 2.000000000000000000e+01 1.351869951121546055e-15 5.994673582373522512e-15 7.510105422825847583e-16 -1.331545290708923630e-15 4.517566371761091764e-16 2.000000000000000000e+01 1.392314880682045832e-15 5.344919878848884807e-15 2.400000000000000000e+01 3.661518340603424840e-15 1.783285779003665327e-14 2.000000000000000000e+01 2.328516354128833770e-15 4.064954946661184687e-15 7.510105422825847583e-16 -1.331545290708923630e-15 4.517566371761091764e-16 1.997479999999999833e+01 -1.025649999999999951e+00 -2.819380000000000219e+00 2.400000000000000000e+01 1.329048229136634431e-15 1.907180084067300115e-14 2.000000000000000000e+01 1.020615044937240111e-15 5.735761458755794850e-15 7.510105422825847583e-16 -1.331545290708923630e-15 4.517566371761091764e-16 1.978150000000000119e+01 -3.009479999999999933e+00 -8.305149999999999366e+00 2.400000000000000000e+01 2.501751846329743127e-16 1.428800199113151673e-14 2.000000000000000000e+01 8.362143428075609328e-16 1.734712717161868227e-15 -2.767869833548958880e+01 -1.988749363019583427e+01 -2.301932028792608875e+01 1.797137720244562686e+01 4.572048889046888576e+01 -1.326886600211290386e+02 2.351485337957874577e+01 2.190429505131981713e+01 -2.319798722348396325e+01 -1.108897396570736760e+01 7.130631038512126096e+00 -2.194246995368067132e+01 -2.818400000000000105e+01 1.072940000000000005e+01 -1.915919999999999845e+01 -4.176741671668936810e-15 -3.500714149568362217e-16 1.000000000000000000e+01 -2.406750959755388960e-15 1.670345894640343290e-15 1.000000000000000000e+01 1.933165598390176499e-15 -1.856135019077287871e-15 1.174090631758279448e-15 -1.998179999999999978e+01 8.718970000000000331e-01 -2.396399999999999864e+00 -2.400000000000000000e+01 -6.413040294708357060e-16 5.680036750377800170e-15 -2.000000000000000000e+01 1.802366629716383160e-15 5.476506788289636066e-15 1.933165598390176499e-15 -1.856135019077287871e-15 1.174090631758279448e-15 -2.000000000000000000e+01 3.246719614051595231e-16 -1.387350859354192507e-15 -2.400000000000000000e+01 -4.303331712867104846e-16 5.460141677806189760e-15 -2.000000000000000000e+01 -1.698284550637075811e-15 4.234276414292774072e-15 1.933165598390176499e-15 -1.856135019077287871e-15 1.174090631758279448e-15 -1.997479999999999833e+01 -1.025649999999999951e+00 2.819380000000000219e+00 -2.400000000000000000e+01 1.772672137566009987e-15 4.214763778053085752e-15 -2.000000000000000000e+01 4.464639917266049418e-16 3.167640461928937921e-15 1.933165598390176499e-15 -1.856135019077287871e-15 1.174090631758279448e-15 -1.978150000000000119e+01 -3.009479999999999933e+00 8.305149999999999366e+00 -2.400000000000000000e+01 -1.707462516603319047e-15 1.700317884557764550e-15 -2.000000000000000000e+01 -4.344832956397170778e-15 4.998401602184627053e-15
7.500000000000000000e+02 0.000000000000000000e+00 0.000000000000000000e+00 0.000000000000000000e+00 0.000000000000000000e+00 0.000000000000000000e+00 2.950038239418219277e+01 -1.910688513291174218e+01 -1.170830653538579753e+02 -9.426034397567629952e+00 -5.269926284713524467e+01 -1.093107632245108007e+01 -4.370015047589139279e+00 1.011708599409371701e+01 2.546244518155580039e+01 9.338675490943973756e+00 4.154058614311457731e+00 4.328917058417824393e+01 1.763886635837834405e+01 -3.861149282448005948e+01 2.001448623780322222e+01 -4.248233841540860478e-01 3.755069802407157820e+00 -8.670405077775713565e+00 -1.344817432008664859e+01 3.326228017409516902e+00 -1.365472673994197272e+01 3.725029729377778764e+00 1.890983977211186229e+01 -1.070868863248925251e+01 6.023162839695077597e-01 4.692087873654502417e+00 -2.687364301621712581e+00 1.049627204291807114e+00 7.405032895745408794e+00 -4.580839545040283234e+00 -1.579575136732176643e+00 -6.563881223513228225e-01 9.136688624184374774e-01 -1.612340301793499187e+00 -6.426191430702719032e-01 9.480384324063303447e-01 -2.964189847682924395e+01 -1.153499351622718549e+01 1.698601793922100001e+01 -6.491533289755063052e+00 -9.087112585168270584e+00 8.204277767993088943e+00 6.216540375491875636e+01 2.206317053338464618e-01 3.844960993597366183e+01 7.275365992629771483e+01 -7.508460652776975053e+01 1.539012761727183261e+02 6.537627375770208582e-01 -2.358435324976656844e+01 1.950608793399402074e+01 2.818400000000000105e+01 1.072940000000000005e+01 1.915919999999999845e+01 2.696466604146430444e-15 -2.779936165309562692e-15 -1.000000000000000000e+01 1.129983754876906921e-15 -3.273129340253370014e-15 -1.000000000000000000e+01 7.681540020702013014e-16 -1.310311799468912666e-15 4.132035063062075217e-16 1.998179999999999978e+01 8.718970000000000331e-01 2.396399999999999864e+00 2.400000000000000000e+01 4.334641250504092706e-15 1.553982400376981423e-14 2.000000000000000000e+01 1.386319343347331012e-15 5.993119604232386984e-15 7.681540020702013014e-16 -1.310311799468912666e-15 4.132035063062075217e-16 2.000000000000000000e+01 1.322005286204126377e-15 4.758368496122657463e-15 2.400000000000000000e+01 3.462014930050287046e-15 1.737737562382604794e-14 2.000000000000000000e+01 2.326845335650316011e-15 4.076445561767407572e-15 7.681540020702013014e-16 -1.310311799468912666e-15 4.132035063062075217e-16 1.997479999999999833e+01 -1.025649999999999951e+00 -2.819380000000000219e+00 2.400000000000000000e+01 1.393268346388998040e-15 1.871452682463915115e-14 2.000000000000000000e+01 9.481435400325961407e-16 5.808637748812666584e-15 7.681540020702013014e-16 -1.310311799468912666e-15 4.132035063062075217e-16 1.978150000000000119e+01 -3.009479999999999933e+00 -8.305149999999999366e+00 2.400000000000000000e+01 1.191768411634375757e-16 1.388473002418914516e-14 2.000000000000000000e+01 8.479687700458377254e-16 1.752876445474238767e-15 -2.769185948346102322e+01 -1.981609909220390620e+01 -2.299597915442949869e+01 1.795812227646230852e+01 4.564271287232473640e+01 -1.326232391852371677e+02 2.375427152500436634e+01 2.191052208977192350e+01 -2.277642861092322235e+01 -1.112190014272142236e+01 7.196170091430901472e+00 -2.183680284344411859e+01 -2.818400000000000105e+01 1.072940000000000005e+01 -1.915919999999999845e+01 -4.266034803359462324e-15 -2.822952607691511538e-16 1.000000000000000000e+01 -2.534909938531611961e-15 1.690598364002847273e-15 1.000000000000000000e+01 1.900621572448738853e-15 -1.751993598472146465e-15 1.250532557802873838e-15 -1.998179999999999978e+01 8.718970000000000331e-01 -2.396399999999999864e+00 -2.400000000000000000e+01 -7.075974677503497047e-16 5.969317325275485437e-15 -2.000000000000000000e+01 1.895227585700542675e-15 5.862514063900086446e-15 1.900621572448738853e-15 -1.751993598472146465e-15 1.250532557802873838e-15 -2.000000000000000000e+01 2.479119841572805600e-16 -1.331223363762102655e-15 -2.400000000000000000e+01 -5.883285297655435431e-16 5.484886013695769755e-15 -2.000000000000000000e+01 -1.753545615974403226e-15 4.242407162066574143e-15 1.900621572448738853e-15 -1.751993598472146465e-15 1.250532557802873838e-15 -1.997479999999999833e+01 -1.025649999999999951e+00 2.819380000000000219e+00 -2.400000000000000000e+01 1.726478668058480631e-15 4.318652925689438736e-15 -2.000000000000000000e+01 4.924064902034585567e-16 3.431744854361696295e-15 1.900621572448738853e-15 -1.751993598472146465e-15 1.250532557802873838e-15 -1.978150000000000119e+01 -3.009479999999999933e+00 8.305149999999999366e+00 -2.400000000000000000e+01 -1.581551445147473965e-15 1.835010202100459480e-15 -2.000000000000000000e+01 -4.422978771220476054e-15 5.085809964237296646e-15
